<svg width="538" height="561" viewBox="0 0 538 561" fill="none" xmlns="http://www.w3.org/2000/svg">
<g clip-path="url(#clip0_41_2400)" filter="url(#filter0_i_41_2400)">
<rect width="576" height="826" transform="translate(0 -11.9318) rotate(-46.1044)" fill="white" style="fill:white;fill-opacity:1;"/>
<path opacity="0.1" d="M368.494 474.106L376.737 472.917L376.738 472.918L442.199 463.447L475.468 495.458L461.612 626.906L330.786 645.828L297.517 613.818L311.39 482.366L368.494 474.106ZM325.433 496.205L315.021 594.931L314.969 595.423L315.459 595.353L336.454 592.323L356.324 589.444L372.844 587.05L413.716 581.135L414.013 581.092L414.044 580.794L422.227 503.164L424.45 482.062L424.502 481.57L424.012 481.64L383.159 487.549L382.863 487.592L382.832 487.889L380.594 508.978L380.392 510.861L380.34 511.354L380.831 511.283L398.324 508.763L392.858 560.753L375.159 563.314L358.627 565.696L358.626 565.695L341.12 568.229L346.603 516.247L364.305 513.686L364.601 513.643L364.632 513.345L364.834 511.46L367.072 490.371L367.124 489.879L366.635 489.95L325.761 495.864L325.465 495.907L325.433 496.205Z" stroke="#16171B" style="stroke:#16171B;stroke:color(display-p3 0.0863 0.0902 0.1059);stroke-opacity:1;" stroke-width="0.770011"/>
<path opacity="0.1" d="M217.568 328.889L225.811 327.701L225.812 327.701L291.274 318.231L324.542 350.241L310.686 481.689L179.86 500.612L146.591 468.602L160.464 337.15L217.568 328.889ZM174.508 350.989L164.095 449.715L164.043 450.207L164.533 450.136L185.528 447.106L205.399 444.228L221.919 441.833L262.791 435.918L263.087 435.875L263.118 435.578L271.301 357.948L273.525 336.845L273.577 336.353L273.086 336.423L232.234 342.332L231.937 342.375L231.906 342.673L229.669 363.762L229.467 365.645L229.414 366.138L229.905 366.067L247.398 363.546L241.933 415.536L224.233 418.097L207.701 420.479L207.701 420.478L190.194 423.012L195.677 371.031L213.379 368.469L213.675 368.426L213.707 368.129L213.908 366.244L216.146 345.155L216.198 344.662L215.709 344.733L174.835 350.648L174.539 350.691L174.508 350.989Z" stroke="#16171B" style="stroke:#16171B;stroke:color(display-p3 0.0863 0.0902 0.1059);stroke-opacity:1;" stroke-width="0.770011"/>
<path opacity="0.1" d="M66.6421 183.673L74.8857 182.484L74.8864 182.485L140.348 173.014L173.617 205.025L159.761 336.473L28.9341 355.395L-4.33473 323.385L9.5385 191.933L66.6421 183.673ZM23.5819 205.772L13.1693 304.498L13.1173 304.99L13.607 304.92L34.6021 301.89L54.4729 299.011L70.9929 296.617L111.865 290.702L112.161 290.659L112.193 290.361L120.376 212.731L122.599 191.629L122.651 191.137L122.16 191.207L81.3077 197.116L81.0116 197.159L80.98 197.456L78.7427 218.545L78.5408 220.428L78.4881 220.921L78.9792 220.85L96.4727 218.33L91.0069 270.32L73.3077 272.881L56.7756 275.263L56.7749 275.262L39.2685 277.796L44.7517 225.814L62.453 223.253L62.7492 223.21L62.7808 222.912L62.9827 221.027L65.22 199.938L65.2727 199.446L64.783 199.517L23.9096 205.431L23.6135 205.474L23.5819 205.772Z" stroke="#16171B" style="stroke:#16171B;stroke:color(display-p3 0.0863 0.0902 0.1059);stroke-opacity:1;" stroke-width="0.770011"/>
<path opacity="0.1" d="M-84.2837 38.4565L-76.0401 37.2678L-76.0394 37.2684L-10.578 27.7979L22.6909 59.8083L8.83484 191.256L-121.992 210.179L-155.261 178.169L-141.387 46.7167L-84.2837 38.4565ZM-127.344 60.5555L-137.756 159.282L-137.808 159.774L-137.319 159.703L-116.324 156.673L-96.4529 153.795L-79.9329 151.4L-39.0609 145.485L-38.7648 145.442L-38.7332 145.145L-30.5501 67.5148L-28.3269 46.4123L-28.2749 45.9202L-28.7653 45.9904L-69.618 51.8993L-69.9142 51.9423L-69.9457 52.2399L-72.183 73.3289L-72.385 75.212L-72.4377 75.7048L-71.9466 75.6339L-54.4531 73.1134L-59.9189 125.103L-77.6181 127.664L-94.1502 130.046L-94.1509 130.045L-111.657 132.579L-106.174 80.5979L-88.4727 78.0362L-88.1766 77.9932L-88.145 77.6956L-87.9431 75.811L-85.7058 54.722L-85.6531 54.2293L-86.1428 54.3002L-127.016 60.2149L-127.312 60.2579L-127.344 60.5555Z" stroke="#16171B" style="stroke:#16171B;stroke:color(display-p3 0.0863 0.0902 0.1059);stroke-opacity:1;" stroke-width="0.770011"/>
<path opacity="0.1" d="M513.708 323.18L521.952 321.992L521.953 321.992L587.414 312.522L620.683 344.532L606.827 475.98L476.001 494.903L442.732 462.892L456.605 331.441L513.708 323.18ZM470.648 345.279L460.236 444.006L460.184 444.498L460.673 444.427L481.668 441.397L501.539 438.519L518.059 436.124L558.931 430.209L559.227 430.166L559.259 429.869L567.442 352.239L569.665 331.136L569.717 330.644L569.227 330.714L528.374 336.623L528.078 336.666L528.046 336.964L525.809 358.053L525.607 359.936L525.555 360.429L526.046 360.358L543.539 357.837L538.073 409.827L520.374 412.388L503.842 414.77L503.841 414.769L486.335 417.303L491.818 365.322L509.519 362.76L509.816 362.717L509.847 362.419L510.049 360.535L512.286 339.446L512.339 338.953L511.849 339.024L470.976 344.939L470.68 344.982L470.648 345.279Z" stroke="#16171B" style="stroke:#16171B;stroke:color(display-p3 0.0863 0.0902 0.1059);stroke-opacity:1;" stroke-width="0.770011"/>
<path opacity="0.1" d="M362.785 177.964L371.028 176.775L371.029 176.776L436.49 167.305L469.759 199.316L455.903 330.764L325.077 349.686L291.808 317.676L305.681 186.224L362.785 177.964ZM319.725 200.063L309.312 298.789L309.26 299.281L309.75 299.211L330.745 296.181L350.615 293.302L367.135 290.908L408.007 284.993L408.304 284.95L408.335 284.652L416.518 207.022L418.741 185.92L418.793 185.428L418.303 185.498L377.45 191.407L377.154 191.45L377.123 191.747L374.885 212.836L374.683 214.719L374.631 215.212L375.122 215.141L392.615 212.621L387.15 264.611L369.45 267.172L352.918 269.554L352.917 269.553L335.411 272.087L340.894 220.105L358.596 217.544L358.892 217.501L358.923 217.203L359.125 215.318L361.363 194.229L361.415 193.737L360.926 193.808L320.052 199.722L319.756 199.765L319.725 200.063Z" stroke="#16171B" style="stroke:#16171B;stroke:color(display-p3 0.0863 0.0902 0.1059);stroke-opacity:1;" stroke-width="0.770011"/>
<path opacity="0.1" d="M211.858 32.7473L220.102 31.5587L220.102 31.5593L285.564 22.0888L318.832 54.0992L304.976 185.547L174.15 204.47L140.881 172.459L154.754 41.0076L211.858 32.7473ZM168.798 54.8464L158.385 153.573L158.333 154.065L158.823 153.994L179.818 150.964L199.689 148.086L216.209 145.691L257.081 139.776L257.377 139.733L257.408 139.436L265.591 61.8057L267.815 40.7032L267.867 40.2111L267.376 40.2813L226.524 46.1902L226.227 46.2332L226.196 46.5308L223.959 67.6197L223.757 69.5029L223.704 69.9957L224.195 69.9248L241.689 67.4043L236.223 119.394L218.523 121.955L201.991 124.337L201.991 124.336L184.484 126.87L189.968 74.8888L207.669 72.3271L207.965 72.2841L207.997 71.9865L208.199 70.1019L210.436 49.0129L210.488 48.5202L209.999 48.5911L169.125 54.5058L168.829 54.5488L168.798 54.8464Z" stroke="#16171B" style="stroke:#16171B;stroke:color(display-p3 0.0863 0.0902 0.1059);stroke-opacity:1;" stroke-width="0.770011"/>
<path opacity="0.1" d="M60.9331 -112.469L69.1767 -113.658L69.1774 -113.657L134.639 -123.128L167.908 -91.1172L154.052 40.3309L23.2251 59.2534L-10.0437 27.243L3.82952 -104.209L60.9331 -112.469ZM17.8729 -90.37L7.46031 8.35645L7.40833 8.84851L7.89802 8.77761L28.8931 5.74765L48.7639 2.86922L65.2839 0.474616L106.156 -5.4401L106.452 -5.48311L106.484 -5.7807L114.667 -83.4107L116.89 -104.513L116.942 -105.005L116.451 -104.935L75.5988 -99.0263L75.3026 -98.9833L75.271 -98.6857L73.0337 -77.5967L72.8318 -75.7135L72.7791 -75.2207L73.2702 -75.2917L90.7637 -77.8121L85.2979 -25.8221L67.5987 -23.2611L51.0666 -20.8794L51.0659 -20.8801L33.5595 -18.3463L39.0427 -70.3276L56.7441 -72.8893L57.0402 -72.9324L57.0718 -73.2299L57.2737 -75.1145L59.511 -96.2035L59.5637 -96.6963L59.074 -96.6254L18.2007 -90.7106L17.9045 -90.6676L17.8729 -90.37Z" stroke="#16171B" style="stroke:#16171B;stroke:color(display-p3 0.0863 0.0902 0.1059);stroke-opacity:1;" stroke-width="0.770011"/>
<path opacity="0.1" d="M658.925 172.255L667.169 171.066L667.17 171.067L732.631 161.596L765.9 193.607L752.044 325.055L621.217 343.977L587.948 311.967L601.822 180.515L658.925 172.255ZM615.865 194.354L605.452 293.08L605.401 293.572L605.89 293.501L626.885 290.472L646.756 287.593L663.276 285.198L704.148 279.284L704.444 279.241L704.476 278.943L712.659 201.313L714.882 180.211L714.934 179.719L714.444 179.789L673.591 185.698L673.295 185.741L673.263 186.038L671.026 207.127L670.824 209.01L670.771 209.503L671.262 209.432L688.756 206.912L683.29 258.902L665.591 261.463L649.059 263.844L649.058 263.844L631.552 266.378L637.035 214.396L654.736 211.835L655.032 211.792L655.064 211.494L655.266 209.609L657.503 188.52L657.556 188.028L657.066 188.099L616.193 194.013L615.897 194.056L615.865 194.354Z" stroke="#16171B" style="stroke:#16171B;stroke:color(display-p3 0.0863 0.0902 0.1059);stroke-opacity:1;" stroke-width="0.770011"/>
<path opacity="0.1" d="M507.999 27.0384L516.243 25.8497L516.244 25.8503L581.705 16.3799L614.974 48.3902L601.118 179.838L470.292 198.761L437.023 166.75L450.896 35.2986L507.999 27.0384ZM464.939 49.1374L454.527 147.864L454.475 148.356L454.964 148.285L475.959 145.255L495.83 142.377L512.35 139.982L553.222 134.067L553.518 134.024L553.55 133.727L561.733 56.0967L563.956 34.9942L564.008 34.5021L563.518 34.5723L522.665 40.4812L522.369 40.5242L522.337 40.8218L520.1 61.9108L519.898 63.7939L519.846 64.2867L520.337 64.2158L537.83 61.6954L532.364 113.685L514.665 116.246L498.133 118.628L498.132 118.627L480.626 121.161L486.109 69.1798L503.81 66.6181L504.107 66.5751L504.138 66.2775L504.34 64.3929L506.577 43.3039L506.63 42.8112L506.14 42.8821L465.267 48.7968L464.971 48.8398L464.939 49.1374Z" stroke="#16171B" style="stroke:#16171B;stroke:color(display-p3 0.0863 0.0902 0.1059);stroke-opacity:1;" stroke-width="0.770011"/>
<path opacity="0.1" d="M357.076 -118.178L365.319 -119.367L365.32 -119.366L430.781 -128.837L464.05 -96.8262L450.194 34.6219L319.368 53.5444L286.099 21.534L299.972 -109.918L357.076 -118.178ZM314.016 -96.079L303.603 2.64747L303.551 3.13953L304.041 3.06862L325.036 0.03867L344.906 -2.83976L361.427 -5.23437L402.298 -11.1491L402.595 -11.1921L402.626 -11.4897L410.809 -89.1197L413.032 -110.222L413.084 -110.714L412.594 -110.644L371.741 -104.735L371.445 -104.692L371.414 -104.395L369.176 -83.3057L368.974 -81.4225L368.922 -80.9297L369.413 -81.0007L386.906 -83.5211L381.441 -31.5311L363.741 -28.9701L347.209 -26.5884L347.208 -26.5891L329.702 -24.0553L335.185 -76.0366L352.887 -78.5983L353.183 -78.6413L353.214 -78.9389L353.416 -80.8235L355.654 -101.912L355.706 -102.405L355.217 -102.334L314.343 -96.4196L314.047 -96.3766L314.016 -96.079Z" stroke="#16171B" style="stroke:#16171B;stroke:color(display-p3 0.0863 0.0902 0.1059);stroke-opacity:1;" stroke-width="0.770011"/>
</g>
<defs>
<filter id="filter0_i_41_2400" x="0" y="-427" width="994.586" height="987.772" filterUnits="userSpaceOnUse" color-interpolation-filters="sRGB">
<feFlood flood-opacity="0" result="BackgroundImageFix"/>
<feBlend mode="normal" in="SourceGraphic" in2="BackgroundImageFix" result="shape"/>
<feColorMatrix in="SourceAlpha" type="matrix" values="0 0 0 0 0 0 0 0 0 0 0 0 0 0 0 0 0 0 127 0" result="hardAlpha"/>
<feMorphology radius="52" operator="erode" in="SourceAlpha" result="effect1_innerShadow_41_2400"/>
<feOffset/>
<feGaussianBlur stdDeviation="30.85"/>
<feComposite in2="hardAlpha" operator="arithmetic" k2="-1" k3="1"/>
<feColorMatrix type="matrix" values="0 0 0 0 1 0 0 0 0 1 0 0 0 0 1 0 0 0 1 0"/>
<feBlend mode="normal" in2="shape" result="effect1_innerShadow_41_2400"/>
</filter>
<clipPath id="clip0_41_2400">
<rect width="576" height="826" fill="white" style="fill:white;fill-opacity:1;" transform="translate(0 -11.9318) rotate(-46.1044)"/>
</clipPath>
</defs>
</svg>
